<?xml version="1.0" encoding="utf-8"?>
<!-- Generator: Adobe Illustrator 25.4.0, SVG Export Plug-In . SVG Version: 6.00 Build 0)  -->
<svg version="1.1" id="Layer_1" xmlns="http://www.w3.org/2000/svg" xmlns:xlink="http://www.w3.org/1999/xlink" x="0px" y="0px"
	 viewBox="0 0 42.2 80" style="enable-background:new 0 0 42.2 80;" xml:space="preserve">
<style type="text/css">
	.st0{fill:url(#SVGID_1_);}
	.st1{fill:url(#SVGID_00000110449293229980262410000015644510990990412734_);}
	.st2{fill:url(#SVGID_00000056413942415940167290000016652681043741916834_);}
	.st3{fill:url(#SVGID_00000052791755447799786620000001154406873178662042_);}
	.st4{fill:url(#SVGID_00000032623709945904078660000002989638878988926855_);}
	.st5{fill:url(#SVGID_00000073700562059142605660000014644998249246129310_);}
	.st6{fill:url(#SVGID_00000103226182546720884920000002416256879701990557_);}
	.st7{fill:url(#SVGID_00000022523994483333861510000013945103700233883057_);}
	.st8{fill:url(#SVGID_00000057125513119641082390000013201072410121855625_);}
	.st9{fill:url(#SVGID_00000122691726939248083590000002120813400530345651_);}
	.st10{fill:url(#SVGID_00000074427965969221516480000005059364711549226909_);}
	.st11{fill:url(#SVGID_00000056411492402543697150000004284732034873013665_);}
	.st12{fill:url(#SVGID_00000086675271992475405430000002870926307540234406_);}
	.st13{clip-path:url(#SVGID_00000018936937867145674650000009683166756878486717_);}
	.st14{fill:url(#SVGID_00000147906665261306868500000017377490574217901246_);}
	.st15{fill:url(#SVGID_00000039105297962711871760000004677760305062092988_);}
	.st16{fill:url(#SVGID_00000165936166433846898590000012032777545305305478_);}
	.st17{fill:url(#SVGID_00000072250012072219785500000014234715725874019251_);}
	.st18{fill:url(#SVGID_00000134933050887378703940000016510726457390757015_);}
	.st19{fill:url(#SVGID_00000036947916456753160470000017473039013707392446_);}
	.st20{fill:url(#SVGID_00000126296067348470536340000002350424800997872575_);}
	.st21{fill:url(#SVGID_00000070101953722436784680000001674913111941392769_);}
	.st22{fill:url(#SVGID_00000026845979754370075700000018319400329184723858_);}
	.st23{fill:url(#SVGID_00000062902783087951627560000015301673627546368413_);}
	.st24{fill:url(#SVGID_00000168818696289774956330000008133762767374479767_);}
	.st25{fill:url(#SVGID_00000096748944125273172760000014463344778416191918_);}
	.st26{fill:url(#SVGID_00000088826438499585595810000013193126822043030698_);}
</style>
<g>
	<defs>
		<rect id="SVGID_00000142153167384503606450000017513276315150077074_" x="3.2" y="3" width="36.8" height="74"/>
	</defs>
	<clipPath id="SVGID_00000124143674951562651600000005264024878370793362_">
		<use xlink:href="#SVGID_00000142153167384503606450000017513276315150077074_"  style="overflow:visible;"/>
	</clipPath>
	<g style="clip-path:url(#SVGID_00000124143674951562651600000005264024878370793362_);">
		
			<linearGradient id="SVGID_1_" gradientUnits="userSpaceOnUse" x1="15.4058" y1="62.2507" x2="28.0056" y2="62.2507" gradientTransform="matrix(1 0 0 -1 0 80.5511)">
			<stop  offset="1.650000e-02" style="stop-color:#415E6C"/>
			<stop  offset="1" style="stop-color:#87B0B9"/>
		</linearGradient>
		<path class="st0" d="M28,18l-2,1.7l-0.1-0.1c0.1-0.6-0.4-1-1.6-1.7l-2-1.1L19,19.5l0.5,1.3c0.6,1.5,1,2.2,2.1,2.4l0.1,0.1
			l-1.6,1.3L20,24.5c0.1-1.1,0-2-0.6-3.6l-2.6-7.2l-1.4-0.8l1-0.9l8.1,4.6C26.2,17.4,26.9,17.7,28,18L28,18z M22.1,16.7l-5.2-2.9
			l2.1,5.6L22.1,16.7z"/>
		
			<linearGradient id="SVGID_00000128450427663825784790000005739346091562035616_" gradientUnits="userSpaceOnUse" x1="29.2056" y1="70.8005" x2="43.1055" y2="70.8005" gradientTransform="matrix(1 0 0 -1 0 80.5511)">
			<stop  offset="1.650000e-02" style="stop-color:#415E6C"/>
			<stop  offset="1" style="stop-color:#87B0B9"/>
		</linearGradient>
		<path style="fill:url(#SVGID_00000128450427663825784790000005739346091562035616_);" d="M41.4,4.2l1.2,9.6c0.1,0.6,0.2,0.8,0.5,1
			v0.1L41,15.2v-0.1c0.2-0.2,0.3-0.5,0.3-1.1L40,3.8l-3.7,8.7h-0.2l-5.8-6.8l1.1,8.6c0.1,0.7,0.7,1.6,1.3,1.8v0.1l-2.3,0.3v-0.1
			c0.5-0.4,0.9-1.3,0.8-2.1l-1.1-8.8l-0.9-1l1.6-0.1l5.8,6.9L40,3.2L41.6,3v0.1C41.4,3.4,41.3,3.6,41.4,4.2z"/>
		
			<linearGradient id="SVGID_00000057863278828965787100000001973893045716154518_" gradientUnits="userSpaceOnUse" x1="33.2056" y1="9.7518" x2="43.4054" y2="9.7518" gradientTransform="matrix(1 0 0 -1 0 80.5511)">
			<stop  offset="1.650000e-02" style="stop-color:#415E6C"/>
			<stop  offset="1" style="stop-color:#87B0B9"/>
		</linearGradient>
		<path style="fill:url(#SVGID_00000057863278828965787100000001973893045716154518_);" d="M33.3,64.7l2.6,0.2V65
			c-0.5,0.4-0.4,1,0,2.3l0.7,2.2l4.2,0.3l0.5-1.3c0.6-1.5,0.8-2.3,0.1-3.2v-0.1l2,0.1v0.1c-0.8,0.7-1.3,1.5-2,3l-3,7l0.5,1.5
			l-1.3-0.1l-2.8-8.7C34.2,66.3,33.8,65.6,33.3,64.7L33.3,64.7z M36.6,69.6l1.8,5.7l2.3-5.5L36.6,69.6z"/>
		
			<linearGradient id="SVGID_00000041978783037509630430000017529369270870276258_" gradientUnits="userSpaceOnUse" x1="20.0627" y1="13.3517" x2="32.0056" y2="13.3517" gradientTransform="matrix(1 0 0 -1 0 80.5511)">
			<stop  offset="1.650000e-02" style="stop-color:#415E6C"/>
			<stop  offset="1" style="stop-color:#87B0B9"/>
		</linearGradient>
		<path style="fill:url(#SVGID_00000041978783037509630430000017529369270870276258_);" d="M23.8,59.9L23.8,59.9l2.4,1.2l0,0
			c-0.6,0.2-0.6,0.9-0.6,2.3l0.1,3.7c0.2,0.1,0.5,0.2,0.7,0.3l1.4,0.8l2.1-3.9c0.3-0.5,0.3-0.8,0.1-1.1l0.1-0.1l1.9,1
			c0,0,0,0.1-0.1,0.1c-0.3,0-0.5,0.2-0.8,0.7l-4.6,8.5c-0.3,0.5-0.3,0.8-0.1,1.1l-0.1,0.1l-3-1.5c-2.3-1.3-4-3.3-2.9-5.2
			c0.8-1.4,2.4-1.7,4.1-1.2l-0.1-3.1C24.3,61.5,24.1,60.7,23.8,59.9z M21.6,68.5c-0.6,1.2-1.1,2.9,1.8,4.5l1.4,0.8l2.9-5.4l-1.4-0.8
			C23.5,66,22.2,67.3,21.6,68.5z"/>
		
			<linearGradient id="SVGID_00000074400738966011175210000014087800178042341293_" gradientUnits="userSpaceOnUse" x1="9.0886" y1="21.4074" x2="22.9057" y2="21.4074" gradientTransform="matrix(1 0 0 -1 0 80.5511)">
			<stop  offset="1.650000e-02" style="stop-color:#415E6C"/>
			<stop  offset="1" style="stop-color:#87B0B9"/>
		</linearGradient>
		<path style="fill:url(#SVGID_00000074400738966011175210000014087800178042341293_);" d="M11.5,53.3c2.8-1.9,6.6-1.1,8.9,2.2
			l2.5,3.5c0,0-0.1,0-0.1,0.1c-0.3-0.1-0.6-0.1-1,0.3L13.9,65c-0.5,0.3-0.6,0.6-0.6,0.9L13.2,66l-2.5-3.5
			C8.2,59.1,8.7,55.3,11.5,53.3z M12.2,54.4c-2.6,1.8-3.6,5.1-1.6,7.9l1.5,2.1l9.6-6.7l-1.5-2.1C18.2,52.8,14.8,52.6,12.2,54.4z"/>
		
			<linearGradient id="SVGID_00000059280680474610055240000009013563964925224614_" gradientUnits="userSpaceOnUse" x1="3.195" y1="36.1193" x2="15.4938" y2="36.1193" gradientTransform="matrix(1 0 0 -1 0 80.5511)">
			<stop  offset="1.650000e-02" style="stop-color:#415E6C"/>
			<stop  offset="1" style="stop-color:#87B0B9"/>
		</linearGradient>
		<path style="fill:url(#SVGID_00000059280680474610055240000009013563964925224614_);" d="M4.3,41.4l1.8,0.2v0.1
			c-2.1,1.3-2.8,2.7-2.6,4c0.3,1.7,1.4,2.5,2.4,2.4c3.4-0.2,1.2-7.3,5.4-7.9c2-0.3,3.7,1.3,4.1,3.7c0.3,2-0.2,3.4-1,4.8l-2-0.2v-0.1
			c1.6-1.1,2.9-2.9,2.5-5.2c-0.2-1.4-1.3-2.5-2.4-2.5c-3.7,0.1-1.4,7.2-5.6,7.9c-1.4,0.2-3.3-0.6-3.7-3.3C3.1,44,3.7,42.5,4.3,41.4z
			"/>
		
			<linearGradient id="SVGID_00000105421215992041828240000001812708612490862522_" gradientUnits="userSpaceOnUse" x1="14.8808" y1="49.258" x2="16.8684" y2="49.258" gradientTransform="matrix(1 0 0 -1 0 80.5511)">
			<stop  offset="1.650000e-02" style="stop-color:#415E6C"/>
			<stop  offset="1" style="stop-color:#87B0B9"/>
		</linearGradient>
		<path style="fill:url(#SVGID_00000105421215992041828240000001812708612490862522_);" d="M16.2,30.4c0.5,0.2,0.8,0.7,0.6,1.2
			s-0.8,0.8-1.3,0.6s-0.7-0.8-0.6-1.3C15.2,30.4,15.7,30.2,16.2,30.4z"/>
	</g>
</g>
</svg>
