<?xml version="1.0" encoding="utf-8"?>
<!-- Generator: Adobe Illustrator 25.2.3, SVG Export Plug-In . SVG Version: 6.00 Build 0)  -->
<svg version="1.1" id="Layer_1" xmlns="http://www.w3.org/2000/svg" xmlns:xlink="http://www.w3.org/1999/xlink" x="0px" y="0px"
	 viewBox="0 0 80 80" style="enable-background:new 0 0 80 80;" xml:space="preserve">
<style type="text/css">
	.st0{fill:url(#SVGID_1_);}
	.st1{fill:url(#SVGID_2_);}
	.st2{fill:url(#SVGID_3_);}
	.st3{fill:url(#SVGID_4_);}
	.st4{fill:url(#SVGID_5_);}
	.st5{fill:url(#SVGID_6_);}
	.st6{fill:url(#SVGID_7_);}
	.st7{fill:url(#SVGID_8_);}
	.st8{fill:url(#SVGID_9_);}
	.st9{fill:url(#SVGID_10_);}
	.st10{fill:url(#SVGID_11_);}
	.st11{fill:url(#SVGID_12_);}
	.st12{fill:url(#SVGID_13_);}
</style>
<g>
	<linearGradient id="SVGID_1_" gradientUnits="userSpaceOnUse" x1="14.6" y1="17.2" x2="27.2" y2="17.2">
		<stop  offset="1.650000e-02" style="stop-color:#415E6C"/>
		<stop  offset="1" style="stop-color:#87B0B9"/>
	</linearGradient>
	<path class="st0" d="M27.2,16.9l-2,1.7l-0.1-0.1c0.1-0.6-0.4-1-1.6-1.7l-2-1.1l-3.3,2.7l0.5,1.3c0.6,1.5,1,2.2,2.1,2.4l0.1,0.1
		l-1.6,1.3l-0.1-0.1c0.1-1.1,0-2-0.6-3.6L16,12.6l-1.4-0.8l1-0.9l8.1,4.6C25.4,16.3,26.1,16.6,27.2,16.9L27.2,16.9z M21.3,15.6
		l-5.2-2.9l2.1,5.6L21.3,15.6z"/>
	<linearGradient id="SVGID_2_" gradientUnits="userSpaceOnUse" x1="28.4" y1="8.65" x2="42.3" y2="8.65">
		<stop  offset="1.650000e-02" style="stop-color:#415E6C"/>
		<stop  offset="1" style="stop-color:#87B0B9"/>
	</linearGradient>
	<path class="st1" d="M40.6,3.1l1.2,9.6c0.1,0.6,0.2,0.8,0.5,1v0.1l-2.1,0.3V14c0.2-0.2,0.3-0.5,0.3-1.1L39.2,2.7l-3.7,8.7h-0.2
		l-5.8-6.8l1.1,8.6c0.1,0.7,0.7,1.6,1.3,1.8v0.1l-2.3,0.3v-0.1c0.5-0.4,0.9-1.3,0.8-2.1l-1.1-8.8l-0.9-1L30,3.3l5.8,6.9l3.4-8.1
		l1.6-0.2V2C40.6,2.3,40.5,2.5,40.6,3.1z"/>
	<linearGradient id="SVGID_3_" gradientUnits="userSpaceOnUse" x1="45.9" y1="10" x2="51.6" y2="10">
		<stop  offset="1.650000e-02" style="stop-color:#415E6C"/>
		<stop  offset="1" style="stop-color:#87B0B9"/>
	</linearGradient>
	<path class="st2" d="M50.8,5.6l-3,9.2c-0.2,0.6-0.2,0.9,0.1,1.1V16l-2-0.7v-0.1c0.3-0.1,0.5-0.3,0.7-0.8l3-9.2
		c0.2-0.6,0.2-0.9,0-1.1V4l2,0.7v0.1C51.1,4.8,50.9,5,50.8,5.6z"/>
	<linearGradient id="SVGID_4_" gradientUnits="userSpaceOnUse" x1="51.3" y1="14.75" x2="63.8" y2="14.75">
		<stop  offset="1.650000e-02" style="stop-color:#415E6C"/>
		<stop  offset="1" style="stop-color:#87B0B9"/>
	</linearGradient>
	<path class="st3" d="M58.4,20.2l-1.6,1.4l-5.5-4.2l0.1-0.1c0.3,0,0.5-0.1,0.9-0.6l6-7.7c0.4-0.5,0.4-0.8,0.3-1l0.1-0.1l5.1,3.9
		l-0.9,1.7h-0.1c-0.1-1.2-0.3-2.6-1.8-3.7l-1-0.7l-3.1,4l3.6,2.3L60,16.1l-3.2-2.9l-4,5.2l1.1,0.8c1.5,1.2,3.2,1.2,4.5,0.9
		L58.4,20.2z"/>
	<linearGradient id="SVGID_5_" gradientUnits="userSpaceOnUse" x1="61.9363" y1="29.8565" x2="63.7766" y2="29.8565">
		<stop  offset="1.650000e-02" style="stop-color:#415E6C"/>
		<stop  offset="1" style="stop-color:#87B0B9"/>
	</linearGradient>
	<path class="st4" d="M63.2,30.7c-0.5,0.2-1,0-1.2-0.5s0.1-1,0.5-1.2c0.5-0.2,1,0.1,1.2,0.5C63.9,30,63.7,30.5,63.2,30.7z"/>
	<linearGradient id="SVGID_6_" gradientUnits="userSpaceOnUse" x1="63.4" y1="42.1" x2="76" y2="42.1">
		<stop  offset="1.650000e-02" style="stop-color:#415E6C"/>
		<stop  offset="1" style="stop-color:#87B0B9"/>
	</linearGradient>
	<path class="st5" d="M65.4,45.7l-2-0.6l0.7-6.9h0.1c0.1,0.3,0.4,0.4,1,0.5l9.7,1c0.6,0.1,0.9,0,1-0.3H76l-0.7,6.4L73.4,46l-0.1-0.1
		c1-0.7,2-1.6,2.2-3.5l0.1-1.2l-5-0.5L70.5,45l-0.9-0.1l0.8-4.3L64,39.9l-0.1,1.4C63.7,43.1,64.5,44.7,65.4,45.7L65.4,45.7z"/>
	<linearGradient id="SVGID_7_" gradientUnits="userSpaceOnUse" x1="59.7621" y1="53.9443" x2="73.4" y2="53.9443">
		<stop  offset="1.650000e-02" style="stop-color:#415E6C"/>
		<stop  offset="1" style="stop-color:#87B0B9"/>
	</linearGradient>
	<path class="st6" d="M62.5,59.9c-2.9-1.7-3.6-5.6-1.6-9l2.2-3.7c0,0,0.1,0,0.1,0.1c0,0.3,0.2,0.5,0.7,0.8l8.3,5
		c0.5,0.3,0.8,0.3,1.1,0.2l0.1,0.1l-2.2,3.7C69.1,60.5,65.4,61.6,62.5,59.9z M63.2,58.7c2.7,1.6,6.1,1.2,7.9-1.7l1.3-2.2l-10.1-6
		L61,50.9C59.3,53.9,60.5,57.1,63.2,58.7z"/>
	<linearGradient id="SVGID_8_" gradientUnits="userSpaceOnUse" x1="45.6" y1="67.9" x2="63" y2="67.9">
		<stop  offset="1.650000e-02" style="stop-color:#415E6C"/>
		<stop  offset="1" style="stop-color:#87B0B9"/>
	</linearGradient>
	<path class="st7" d="M47.8,72.2l-1-7.5l-1.2-1.1l1.2-0.6l6.9,6.3c0,0,0.3,0.2,0.4,0.3l-1.1-8l-1.2-1.1l1.2-0.6l6.9,6.3
		c1.4,1.2,2.1,1.6,3,2l0.1,0.1l-2.4,1.2l-0.1-0.1c0.2-0.6-0.2-1.1-1.2-2l-6.2-5.7l1,7.3c0,0.2,0.1,0.5,0.1,0.7
		c1,0.9,1.7,1.2,2.5,1.6l0.1,0.1l-2.4,1.2l-0.1-0.1c0.2-0.6-0.2-1.1-1.2-2l-6.2-5.7L47.8,72.2c0.3,1.5,0.6,2.3,1.6,2.7l0.1,0.1
		l-1.8,0.9l-0.1-0.1C47.9,74.8,48,73.9,47.8,72.2z"/>
	<linearGradient id="SVGID_9_" gradientUnits="userSpaceOnUse" x1="32.4" y1="69.7" x2="42.6" y2="69.7">
		<stop  offset="1.650000e-02" style="stop-color:#415E6C"/>
		<stop  offset="1" style="stop-color:#87B0B9"/>
	</linearGradient>
	<path class="st8" d="M32.5,63.6l2.6,0.2v0.1c-0.5,0.4-0.4,1,0,2.3l0.7,2.2l4.2,0.3l0.5-1.3c0.6-1.5,0.8-2.3,0.1-3.2v-0.1l2,0.1v0.1
		c-0.8,0.7-1.3,1.5-2,3l-3,7l0.5,1.5l-1.3-0.1L34,67c-0.6-1.8-1-2.5-1.6-3.3L32.5,63.6z M35.8,68.5l1.8,5.7l2.3-5.5L35.8,68.5z"/>
	<linearGradient id="SVGID_10_" gradientUnits="userSpaceOnUse" x1="19.2569" y1="66.1" x2="31.2" y2="66.1">
		<stop  offset="1.650000e-02" style="stop-color:#415E6C"/>
		<stop  offset="1" style="stop-color:#87B0B9"/>
	</linearGradient>
	<path class="st9" d="M23,58.8l0.1-0.1l2.3,1.3l0,0c-0.6,0.2-0.6,0.9-0.6,2.3l0.1,3.7c0.2,0.1,0.5,0.2,0.7,0.3l1.4,0.8l2.1-3.9
		c0.3-0.5,0.3-0.8,0.1-1.1l0.1-0.1l1.9,1c0,0,0,0.1-0.1,0.1c-0.3,0-0.5,0.2-0.8,0.7l-4.6,8.5c-0.3,0.5-0.3,0.8-0.1,1.1l-0.1,0.1
		l-3-1.5c-2.3-1.3-4-3.3-2.9-5.2c0.8-1.4,2.4-1.7,4.1-1.2l-0.1-3.1C23.5,60.4,23.3,59.6,23,58.8z M20.8,67.4
		c-0.6,1.2-1.1,2.9,1.8,4.5l1.4,0.8l2.9-5.4l-1.4-0.8C22.7,64.9,21.4,66.2,20.8,67.4z"/>
	<linearGradient id="SVGID_11_" gradientUnits="userSpaceOnUse" x1="8.2828" y1="58.0442" x2="22.1" y2="58.0442">
		<stop  offset="1.650000e-02" style="stop-color:#415E6C"/>
		<stop  offset="1" style="stop-color:#87B0B9"/>
	</linearGradient>
	<path class="st10" d="M10.7,52.2c2.8-1.9,6.6-1.1,8.9,2.2l2.5,3.5c0,0-0.1,0-0.1,0.1c-0.3-0.1-0.6-0.1-1,0.3l-7.9,5.6
		c-0.5,0.3-0.6,0.6-0.6,0.9l-0.1,0.1l-2.5-3.5C7.4,58,7.9,54.2,10.7,52.2z M11.4,53.3c-2.6,1.8-3.6,5.1-1.6,7.9l1.5,2.1l9.6-6.7
		l-1.5-2.1C17.4,51.7,14,51.5,11.4,53.3z"/>
	<linearGradient id="SVGID_12_" gradientUnits="userSpaceOnUse" x1="2.389" y1="43.332" x2="14.688" y2="43.332">
		<stop  offset="1.650000e-02" style="stop-color:#415E6C"/>
		<stop  offset="1" style="stop-color:#87B0B9"/>
	</linearGradient>
	<path class="st11" d="M3.5,40.3l1.8,0.2v0.1c-2.1,1.3-2.8,2.7-2.6,4C3,46.3,4.1,47.1,5.1,47c3.4-0.2,1.2-7.3,5.4-7.9
		c2-0.3,3.7,1.3,4.1,3.7c0.3,2-0.2,3.4-1,4.8l-2-0.2v-0.1c1.6-1.1,2.9-2.9,2.5-5.2c-0.2-1.4-1.3-2.5-2.4-2.5
		c-3.7,0.1-1.4,7.2-5.6,7.9c-1.4,0.2-3.3-0.6-3.7-3.3C2.3,42.9,2.9,41.4,3.5,40.3z"/>
	<linearGradient id="SVGID_13_" gradientUnits="userSpaceOnUse" x1="14.075" y1="30.193" x2="16.0626" y2="30.193">
		<stop  offset="1.650000e-02" style="stop-color:#415E6C"/>
		<stop  offset="1" style="stop-color:#87B0B9"/>
	</linearGradient>
	<path class="st12" d="M15.4,29.3c0.5,0.2,0.8,0.7,0.6,1.2c-0.2,0.5-0.8,0.8-1.3,0.6c-0.5-0.2-0.7-0.8-0.6-1.3
		C14.4,29.3,14.9,29.1,15.4,29.3z"/>
</g>
</svg>
