<svg width="102" height="82" viewBox="0 0 102 82" fill="none" xmlns="http://www.w3.org/2000/svg">
<path opacity="0.5" d="M41.8492 2.70394C42.4888 2.54098 43.1297 2.38521 43.7717 2.23676L43.8561 2.60211C44.3361 2.49112 44.8165 2.38425 45.2973 2.28154C45.8043 2.17382 46.3118 2.07071 46.8194 1.97222L46.748 1.60408C47.4296 1.47183 48.1116 1.34787 48.7936 1.23224L48.8563 1.60196C49.8804 1.42829 50.9044 1.27349 51.9266 1.13768L51.8772 0.765941C52.5662 0.674399 53.2544 0.591444 53.9414 0.51711L53.9817 0.889929C55.0158 0.778045 56.0469 0.685796 57.0735 0.613314L57.0471 0.23925C57.7411 0.190254 58.4331 0.150239 59.1226 0.119263L59.1394 0.493882C60.1804 0.447111 61.2155 0.421029 62.243 0.415768L62.2411 0.0407712C62.9378 0.0372083 63.631 0.0431702 64.3202 0.0587016L64.3118 0.433609C65.3541 0.457098 66.3872 0.50258 67.409 0.570203L67.4338 0.19602C68.13 0.242095 68.8212 0.298393 69.5067 0.364964L69.4705 0.73821C70.5102 0.839186 71.5367 0.963914 72.5477 1.11254L72.6022 0.741521C73.2928 0.843039 73.9764 0.955652 74.6523 1.07942L74.5847 1.44828C75.6143 1.6368 76.6256 1.8513 77.6163 2.09193L77.7048 1.72753C78.3839 1.8925 79.0537 2.06969 79.7132 2.25918L79.6097 2.61959C80.616 2.90869 81.5979 3.22649 82.5528 3.57315L82.6808 3.22065C83.3382 3.45931 83.9832 3.71161 84.6149 3.97761L84.4694 4.32322C85.4335 4.72919 86.3656 5.16714 87.2629 5.63723L87.4369 5.30506C88.0568 5.62984 88.6606 5.96995 89.2471 6.32546L89.0527 6.64615C89.944 7.18639 90.7943 7.76218 91.6003 8.37372L91.827 8.07498C92.3839 8.49755 92.9203 8.9372 93.4349 9.394L93.186 9.67445C93.9591 10.3607 94.6819 11.0857 95.3505 11.8497L95.6327 11.6028C96.0902 12.1255 96.5229 12.6665 96.9297 13.2259L96.6265 13.4465C96.9271 13.8598 97.2132 14.2832 97.4843 14.7168L97.4852 14.7182C97.7484 15.135 97.9979 15.5613 98.2339 15.9965L98.5635 15.8177C98.8812 16.4036 99.1746 17.005 99.4443 17.6209L99.1008 17.7713C99.4939 18.6689 99.8361 19.5982 100.129 20.555L100.487 20.4453C100.682 21.0807 100.854 21.7277 101.006 22.3852L100.64 22.4694C100.86 23.4238 101.035 24.4013 101.166 25.3981L101.538 25.3493C101.624 26.0079 101.691 26.6745 101.74 27.3481L101.366 27.3752C101.437 28.3543 101.469 29.3487 101.461 30.3553L101.836 30.358C101.831 31.0227 101.81 31.6924 101.772 32.3662L101.398 32.3452C101.342 33.3284 101.252 34.3207 101.128 35.3191L101.5 35.3654C101.417 36.0258 101.32 36.6887 101.209 37.3532L100.839 37.2911C100.675 38.2656 100.48 39.2439 100.255 40.2233L100.62 40.3074C100.471 40.9568 100.308 41.6065 100.132 42.2558L99.7702 42.1578C99.5111 43.1147 99.2236 44.0708 98.9085 45.0236L99.2645 45.1413C99.055 45.7748 98.8334 46.4068 98.6 47.0365L98.2484 46.9062C97.9029 47.8382 97.5313 48.7653 97.1345 49.685L97.4788 49.8335C97.2141 50.4471 96.9383 51.0574 96.6515 51.6637L96.3125 51.5033C95.8868 52.4035 95.4369 53.2949 94.9637 54.175L95.2939 54.3526C94.9771 54.942 94.6498 55.5264 94.3124 56.1051L93.9884 55.9162C93.4858 56.7781 92.9606 57.6273 92.4137 58.4615L92.7273 58.6671C92.3599 59.2273 91.9828 59.7808 91.5961 60.3269L91.2901 60.1102C90.7127 60.9255 90.1141 61.724 89.495 62.5034L89.7887 62.7367C89.3716 63.2618 88.9452 63.7784 88.5099 64.2856L88.2253 64.0414C87.9003 64.4201 87.5702 64.7936 87.2353 65.1615C86.9112 65.5174 86.5825 65.8682 86.2492 66.2138L86.5192 66.4741C86.0705 66.9395 85.6135 67.3955 85.1488 67.8421L84.889 67.5717C84.1945 68.239 83.4824 68.885 82.7538 69.5092L82.9978 69.794C82.507 70.2144 82.0088 70.625 81.5035 71.0255L81.2706 70.7317C80.5163 71.3297 79.7462 71.9051 78.9615 72.4575L79.1773 72.7641C78.649 73.136 78.114 73.4975 77.5729 73.8485L77.3688 73.5338C76.5615 74.0574 75.7402 74.5573 74.9062 75.0329L75.092 75.3586C74.5309 75.6786 73.9641 75.9877 73.3919 76.2856L73.2187 75.953C72.3656 76.3974 71.5005 76.8169 70.6246 77.211L70.7785 77.5529C70.1896 77.8179 69.5959 78.0715 68.9977 78.3135L68.8571 77.9659C67.9658 78.3265 67.0647 78.6612 66.1548 78.9694L66.2751 79.3246C65.6636 79.5317 65.0483 79.727 64.4294 79.9103L64.3229 79.5507C63.4015 79.8235 62.4722 80.0694 61.5363 80.2879L61.6216 80.6531C60.9931 80.7998 60.3616 80.9342 59.7275 81.0561L59.6567 80.6879C58.7138 80.8692 57.7651 81.0228 56.8118 81.1481L56.8606 81.5199C56.221 81.6039 55.5794 81.6752 54.9361 81.7338L54.9021 81.3603C53.9466 81.4472 52.9874 81.5056 52.0257 81.5349L52.0371 81.9097C51.3927 81.9293 50.7472 81.936 50.1009 81.9295L50.1047 81.5545C49.1461 81.5449 48.1859 81.5062 47.2252 81.4378L47.1986 81.8118C46.5558 81.7661 45.9129 81.7071 45.2701 81.6348L45.312 81.2622C44.361 81.1552 43.4103 81.0188 42.461 80.8524L42.3963 81.2218C41.7622 81.1106 41.1288 80.9862 40.4963 80.8483L40.5762 80.4819C39.6419 80.2783 38.7098 80.0451 37.781 79.7818L37.6787 80.1426C37.06 79.9672 36.4427 79.7786 35.8271 79.5766L35.9441 79.2203C35.489 79.071 35.0348 78.9142 34.5818 78.75C34.1312 78.584 33.6817 78.4107 33.2335 78.2302L33.0934 78.578C32.4943 78.3367 31.8976 78.0828 31.3039 77.8168L31.4572 77.4746C30.5804 77.0818 29.7101 76.6624 28.8479 76.218L28.6761 76.5513C28.1013 76.255 27.5303 75.9478 26.9634 75.6301L27.1467 75.303C26.3065 74.8321 25.4755 74.338 24.6554 73.8222L24.4558 74.1397C23.9077 73.795 23.3645 73.4408 22.8268 73.0775L23.0367 72.7668C22.2367 72.2263 21.4487 71.6657 20.6745 71.0864L20.4498 71.3867C19.9307 70.9983 19.4177 70.6016 18.9113 70.1971L19.1454 69.9041C18.3894 69.3002 17.6484 68.6787 16.9239 68.0414L16.6762 68.3229C16.1887 67.8941 15.7087 67.458 15.2367 67.0153L15.4933 66.7418C14.7859 66.0784 14.0966 65.3999 13.4272 64.7081L13.1577 64.9688C12.7055 64.5015 12.2623 64.0281 11.8286 63.5491L12.1066 63.2974C11.4545 62.5773 10.8242 61.8446 10.2174 61.101L9.92684 61.3382C9.51508 60.8336 9.11405 60.3241 8.72431 59.8101L9.02312 59.5835C8.43467 58.8075 7.87229 58.0214 7.3379 57.2271L7.02677 57.4365C6.6626 56.8952 6.31127 56.3501 5.9734 55.8017L6.29266 55.605C5.78162 54.7755 5.30181 53.9388 4.85534 53.0969L4.52405 53.2726C4.21782 52.6952 3.92706 52.1153 3.65244 51.5334L3.99157 51.3733C3.57538 50.4915 3.19686 49.6057 2.85835 48.7182L2.50797 48.8519C2.275 48.2411 2.06068 47.6294 1.86581 47.0174L2.22313 46.9036C1.92733 45.9747 1.67706 45.0458 1.47492 44.1197L1.10855 44.1997C0.96925 43.5615 0.852452 42.9243 0.759033 42.2888L1.13005 42.2343C0.988895 41.2742 0.901996 40.3191 0.872267 39.372L0.497452 39.3838C0.477005 38.7324 0.483167 38.0843 0.51692 37.4405L0.891406 37.4601C0.916504 36.9814 0.957105 36.5052 1.01361 36.0321C1.0713 35.5489 1.14575 35.0686 1.23649 34.5914L0.86809 34.5214C0.991116 33.8744 1.14353 33.233 1.32417 32.5976L1.68488 32.7001C1.94922 31.7704 2.2752 30.8529 2.65927 29.9487L2.31411 29.8021C2.56995 29.1998 2.85103 28.6037 3.15628 28.014L3.48931 28.1864C3.93206 27.3311 4.42673 26.4888 4.9701 25.6604L4.65654 25.4547C5.0146 24.9089 5.39335 24.3693 5.79184 23.8363L6.09218 24.0609C6.66962 23.2885 7.28937 22.5296 7.94859 21.7848L7.6678 21.5363C8.10042 21.0475 8.54967 20.5651 9.01474 20.0892L9.28295 20.3512C9.95912 19.6593 10.6694 18.9808 11.4112 18.3167L11.1611 18.0373C11.6481 17.6012 12.1484 17.1714 12.6614 16.7481L12.9001 17.0373C13.6476 16.4204 14.4224 15.8171 15.2222 15.2279L14.9998 14.926C15.5269 14.5377 16.0647 14.1557 16.6126 13.78L16.8246 14.0893C17.6275 13.5388 18.4522 13.0019 19.2969 12.4793L19.0996 12.1604C19.657 11.8155 20.223 11.4767 20.797 11.1444L20.9849 11.4689C21.8296 10.9798 22.6917 10.5046 23.5695 10.0436L23.3952 9.71158C23.9764 9.40635 24.5644 9.10739 25.1586 8.81488L25.3242 9.15131C26.2025 8.71893 27.0945 8.30061 27.9985 7.89683L27.8456 7.55443C28.4459 7.28631 29.0514 7.0246 29.6616 6.76943L29.8063 7.1154C30.7112 6.73699 31.6266 6.37301 32.5509 6.02391L32.4184 5.6731C33.0342 5.44049 33.6539 5.21447 34.277 4.99517L34.4015 5.34891C35.3291 5.02244 36.2642 4.71093 37.2053 4.41482L37.0927 4.05711C37.7214 3.85929 38.3527 3.66831 38.9862 3.48432L39.0908 3.84443C40.0369 3.56962 40.9878 3.31044 41.9418 3.06733L41.8492 2.70394Z" stroke="white" stroke-width="0.75" stroke-dasharray="3 2"/>
</svg>
